<svg xmlns="http://www.w3.org/2000/svg" viewBox="0 0 1024 1024" width="1024" height="1024">
    <path d="M853.3333 620.5525V454.6944C853.3333 419.8123 853.3333 402.3723 846.8395 386.6906C840.3413 371.0089 828.0107 358.6769 803.3451 334.0130L601.2544 131.9202C579.9680 110.6347 569.3269 99.9915 556.1387 93.6853C553.3952 92.3733 550.5877 91.2094 547.7205 90.1978C533.9349 85.3333 518.8864 85.3333 488.7808 85.3333C350.3283 85.3333 281.1012 85.3333 234.2114 123.1390C224.7386 130.7767 216.1101 139.4052 208.4723 148.8781C170.6667 195.7679 170.6667 264.9950 170.6667 403.4492V620.5525C170.6667 759.0059 170.6667 828.2325 208.4723 875.1232C216.1101 884.5952 224.7386 893.2224 234.2114 900.8597C281.1012 938.6667 350.3283 938.6667 488.7808 938.6667H535.2192C673.6725 938.6667 742.8992 938.6667 789.7899 900.8597C799.2619 893.2224 807.8891 884.5952 815.5264 875.1232C853.3333 828.2325 853.3333 759.0059 853.3333 620.5525Z" fill="#000000" fill-opacity="0.08"/>
    <path d="M554.6667 106.6667V128.0000C554.6667 248.6797 554.6667 309.0193 592.1579 346.5097C629.6491 384.0000 689.9883 384.0000 810.6667 384.0000H832.0000L601.2544 131.9202C579.9680 110.6347 569.3269 99.9915 554.6667 106.6667Z" fill="#000000" fill-opacity="0.20"/>

    <rect x="246" y="420" width="514" height="314" rx="92" fill="#000000" fill-opacity="0.04"/>
    <rect x="288" y="468" width="346" height="40" rx="20" fill="#000000" fill-opacity="0.07"/>
    <rect x="288" y="544" width="270" height="34" rx="17" fill="#000000" fill-opacity="0.06"/>
    <rect x="288" y="612" width="212" height="30" rx="15" fill="#000000" fill-opacity="0.05"/>
    <rect x="258" y="706" width="564" height="190" rx="96" fill="#000000" fill-opacity="0.05"/>
</svg>
