<svg xmlns="http://www.w3.org/2000/svg" viewBox="0 0 1024 1024" width="1024" height="1024">
    <path fill="#000000" fill-rule="evenodd" clip-rule="evenodd" d="M446.1227,117.3333 C376.1067,117.3333 326.4000,117.3760 288.2133,121.8560 C250.7093,126.2080 228.4800,134.4853 211.6267,148.0533 C203.9467,154.2400 196.9067,161.2800 190.7200,168.9600 C177.1520,185.8133 168.8747,208.0427 164.5227,245.5467 C160.0427,283.7333 160.0000,333.4400 160.0000,403.4560 L160.0000,597.3333 C160.0000,678.6987 160.0853,736.5120 165.9733,780.3307 C171.7333,823.2533 182.5707,848.0000 200.6187,866.0480 C218.6667,884.0960 243.4133,894.9333 286.3360,900.6933 C330.1973,906.6240 387.9680,906.6667 469.3333,906.6667 L810.6667,906.6667 C828.3307,906.6667 842.6667,921.0027 842.6667,938.6667 C842.6667,956.3307 828.3307,970.6667 810.6667,970.6667 L466.9013,970.6667 C388.5227,970.6667 326.4000,970.6667 277.8027,964.1387 C227.7973,957.3973 187.3067,943.2320 155.3493,911.3173 C123.4347,879.4027 109.2693,838.9120 102.5280,788.8640 C96.0000,740.2667 96.0000,678.1440 96.0000,599.7653 L96.0000,401.4080 C96.0000,333.9093 96.0000,280.4480 100.9493,238.1227 C106.0267,194.6880 116.6507,158.8480 140.8853,128.8107 C149.9733,117.5467 160.2133,107.3067 171.4773,98.2187 C201.5147,73.9840 237.3120,63.3600 280.7893,58.2827 C323.1147,53.3333 376.5760,53.3333 444.0747,53.3333 L446.1227,53.3333 L450.5600,53.3333 C476.2880,53.3333 496.6400,53.2907 515.7120,60.0320 C519.6373,61.3973 523.5200,63.0187 527.2747,64.8107 C545.5360,73.5573 559.8720,87.9360 578.0480,106.1547 L581.2053,109.3120 L783.3173,311.3813 L786.9440,315.0507 C808.0640,336.0853 824.7467,352.7680 833.7493,374.4427 C839.2533,387.7547 841.0027,404.5653 841.8133,419.0293 C842.6667,434.2613 842.6667,451.7547 842.6667,468.7360 L842.6667,469.3333 C842.6667,486.9973 828.3307,501.3333 810.6667,501.3333 C793.0027,501.3333 778.6667,486.9973 778.6667,469.3333 C778.6667,451.6267 778.6667,435.8827 777.8987,422.6133 C777.7707,420.2240 777.6000,418.0053 777.4293,416.0000 L765.6533,416.0000 C707.2853,416.0000 660.2667,416.0000 623.2747,411.0507 C584.8747,405.8880 552.5333,394.8373 526.8480,369.1520 C501.1627,343.4667 490.1547,311.1253 484.9493,272.7253 C480.0000,235.7333 480.0000,188.7147 480.0000,130.3467 L480.0000,117.8880 C472.8747,117.4613 462.5920,117.3333 446.1227,117.3333 Z"/>
</svg>
