<svg xmlns="http://www.w3.org/2000/svg" viewBox="0 0 1024 1024" width="1024pt" height="1024pt">
    <path fill="#000000" fill-rule="evenodd" clip-rule="evenodd" d="M533.3333,565.3333 L588.2027,565.3333 C645.4187,565.3333 693.3333,610.6453 693.3333,668.4587 L693.3333,739.5413 C693.3333,797.3547 645.4187,842.6667 588.2027,842.6667 L533.3333,842.6667 C515.6693,842.6667 501.3333,828.3307 501.3333,810.6667 L501.3333,597.3333 C501.3333,579.6693 515.6693,565.3333 533.3333,565.3333 Z M298.6667,565.3333 L362.6667,565.3333 C415.7013,565.3333 458.6667,608.2987 458.6667,661.3333 C458.6667,714.3680 415.7013,757.3333 362.6667,757.3333 L330.6667,757.3333 L330.6667,810.6667 C330.6667,828.3307 316.3307,842.6667 298.6667,842.6667 C281.0027,842.6667 266.6667,828.3307 266.6667,810.6667 L266.6667,597.3333 C266.6667,579.6693 281.0027,565.3333 298.6667,565.3333 Z M810.6667,565.3333 L896.0000,565.3333 C913.6640,565.3333 928.0000,579.6693 928.0000,597.3333 C928.0000,614.9973 913.6640,629.3333 896.0000,629.3333 L810.6667,629.3333 C804.7787,629.3333 800.0000,634.1120 800.0000,640.0000 L800.0000,672.0000 L874.6667,672.0000 C892.3307,672.0000 906.6667,686.3360 906.6667,704.0000 C906.6667,721.6640 892.3307,736.0000 874.6667,736.0000 L800.0000,736.0000 L800.0000,810.6667 C800.0000,828.3307 785.6640,842.6667 768.0000,842.6667 C750.3360,842.6667 736.0000,828.3307 736.0000,810.6667 L736.0000,640.0000 C736.0000,598.7413 769.4507,565.3333 810.6667,565.3333 Z M565.3333,778.6667 L588.2027,778.6667 C611.7547,778.6667 629.3333,760.3200 629.3333,739.5413 L629.3333,668.4587 C629.3333,647.6800 611.7547,629.3333 588.2027,629.3333 L565.3333,629.3333 Z M362.6667,693.3333 C380.3307,693.3333 394.6667,678.9973 394.6667,661.3333 C394.6667,643.6693 380.3307,629.3333 362.6667,629.3333 L330.6667,629.3333 L330.6667,693.3333 Z"/>
</svg>
